<svg transform="scale(.7)" version="1.0" viewBox="0 0 300 300" xmlns="http://www.w3.org/2000/svg">
 <g transform="matrix(.38 0 0 .25 -1.6 57)">
  <path d="m4.2 396h792" style="fill:none;stroke-width:6.9;stroke:#131516"/>
  <path d="m4.2 636h792" style="fill:none;stroke-width:6.9;stroke:#131516"/>
  <path d="m4.2 516h792" style="fill:none;stroke-width:6.9;stroke:#131516"/>
  <path d="m4.2 276h792" style="fill:none;stroke-width:6.9;stroke:#131516"/>
  <path d="m4.2 156h792" style="fill:none;stroke-width:6.9;stroke:#131516"/>
  <path d="m752 154v483" style="fill:none;stroke-linecap:round;stroke-width:6.5;stroke:#000"/>
  <rect transform="matrix(.67 0 0 1 1.4e-6 -200)" x="1157" y="352" width="41" height="488"/>
 </g>
 <path d="m49 171c-3.1 0.64-6 2.4-8.8 5.1-2.8 2.8-4.3 6-4.5 9.5-0.15 2.2 0.43 4.8 1.7 7.6 1.3 2.8 3.4 4.9 6.2 6.4 0.95 0.27 1.4 0.8 1.3 1.5-0.017 0.25-0.39 0.48-1.3 0.62-4.5-1.5-8.1-4.2-11-8.1-2.7-3.9-3.9-8.3-3.7-13 0.51-5.2 2.4-9.9 5.7-14 3.3-4.3 7.4-7.2 12-8.7l-2.2-18c-8.2 5.9-15 12-20 19-5.4 6.7-8.4 14-9.2 22-0.15 3.7 0.36 7.3 1.5 11 1.2 3.6 3.1 6.8 5.7 9.9 5.3 6.1 13 9.6 22 10 3.1 0.011 6.4-0.32 10-0.98l-5.1-40zm3.7-0.25 5.2 39c8-2.6 12-9.1 13-19-0.21-3.5-1-6.7-2.5-9.6-1.5-2.9-3.5-5.3-6.3-7.1-2.7-1.8-5.8-2.8-9.5-3.1zm-6.7-53c1.7-0.89 3.8-2.5 6-4.8 2.2-2.3 4.5-5 6.6-8.1 2.2-3.1 4-6.4 5.4-9.6 1.4-3.2 2.2-6.4 2.4-9.3 0.087-1.3 0.073-2.5-0.1-3.7-0.077-1.8-0.53-3.3-1.4-4.3-0.9-0.97-2.1-1.6-3.6-1.7-3-0.21-5.9 1.5-8.6 5-2.1 3.1-3.9 6.8-5.3 11-1.5 4.3-2.4 8.6-2.8 13-0.092 5 0.43 9.1 1.5 12zm-3.4 2.7c-1.7-8.3-2.4-17-2.1-25 0.43-5.4 1.3-10 2.7-15 1.3-4.7 3.1-8.6 5.2-12 2.1-3.4 4.5-5.9 7-7.6 2.3-1.5 3.9-2.2 4.8-2.2 0.66 0.045 1.2 0.34 1.7 0.82 0.47 0.49 1.1 1.3 1.8 2.4 5.4 8.9 7.7 19 6.9 31-0.39 5.7-1.5 11-3.4 17-1.8 5.4-4.4 10-7.6 15-3.3 4.7-7 8.8-11 12l2.7 20c2.2-0.099 3.8-0.2 4.6-0.14 3.8 0.26 7.2 1.3 10 3.1 3.1 1.8 5.6 4.2 7.7 7.1 2 2.9 3.5 6.1 4.5 9.7 0.92 3.6 1.3 7.3 1.1 11-0.41 5.9-2.4 11-5.8 16-3.5 4.7-8.4 7.9-15 9.8 0.23 2.5 0.69 6.1 1.4 11 0.69 4.7 1.2 8.4 1.5 11 0.32 2.8 0.34 5.4 0.16 8-0.27 4-1.5 7.4-3.6 10-2.2 3-5 5.2-8.4 6.7-3.4 1.5-7.1 2.1-11 1.8-5.6-0.38-10-2.3-14-5.6-3.9-3.4-5.9-7.7-5.7-13 0.31-2.4 1-4.5 2.2-6.6 1.2-2 2.6-3.7 4.5-4.9 1.8-1.2 3.9-1.8 6.3-1.8 2 0.14 3.8 0.82 5.5 2 1.6 1.2 3 2.8 3.9 4.7 0.88 1.9 1.3 4 1.1 6.3-0.21 3-1.4 5.4-3.6 7.3-2.2 1.9-4.8 2.8-7.9 2.6l-1.2-0.08c1.8 3.2 4.9 4.9 9.4 5.3 2.3 0.16 4.6-0.19 7-0.93 2.4-0.79 4.5-1.9 6.3-3.4 1.8-1.5 3-3.1 3.6-4.9 1-2 1.6-4.8 1.8-8.4 0.17-2.4 0.081-4.9-0.21-7.3-0.29-2.4-0.78-5.6-1.5-9.6-0.69-3.9-1.2-7-1.5-9.1-3.1 0.55-6.2 0.73-9.5 0.51-5.5-0.38-11-1.8-15-4.5-4.7-2.6-8.8-6-12-10-3.4-4.3-6-9-7.7-14-1.7-5.2-2.4-11-2-16 0.56-5.1 1.9-10 4-15 2.1-4.6 4.8-8.8 7.9-13 3.2-3.9 6.4-7.5 9.7-11 3.4-3.1 7.7-7.1 13-12z" style="fill-rule:evenodd;fill:#131516;stroke-width:.15;stroke:#131516"/>
 <path id="sharp-on-F" d="m94 109v-22l9-2.6v22l-9 2.7zm18-5.3-6.2 1.8v-22l6.2-1.8v-9l-6.2 1.8v-22h-2.5v23l-9 2.7v-22h-2.4v22l-6.2 1.8v9l6.2-1.8v22l-6.2 1.8v9l6.2-1.8v22h2.4v-23l9-2.6v21h2.5v-22l6.2-1.8v-9z"/>
 <path id="sharp-on-C" d="m119 154v-22l9-2.6v22l-9 2.7zm18-5.3-6.2 1.8v-22l6.2-1.8v-9l-6.2 1.8v-22h-2.5v23l-9 2.7v-22h-2.4v22l-6.2 1.8v9l6.2-1.8v22l-6.2 1.8v9l6.2-1.8v22h2.4v-23l9-2.6v21h2.5v-22l6.2-1.8v-9z"/>
 <path id="sharp-on-G" d="m144 94v-22l9-2.6v22l-9 2.7zm18-5.3-6.2 1.8v-22l6.2-1.8v-9l-6.2 1.8v-22h-2.5v23l-9 2.7v-22h-2.4v22l-6.2 1.8v9l6.2-1.8v22l-6.2 1.8v9l6.2-1.8v22h2.4v-23l9-2.6v21h2.5v-22l6.2-1.8v-9z"/>
 <path id="sharp-on-D" d="m169 139v-22l9-2.6v22l-9 2.7zm18-5.3-6.2 1.8v-22l6.2-1.8v-9l-6.2 1.8v-22h-2.5v23l-9 2.7v-22h-2.4v22l-6.2 1.8v9l6.2-1.8v22l-6.2 1.8v9l6.2-1.8v22h2.4v-23l9-2.6v21h2.5v-22l6.2-1.8v-9z"/>
 <path id="sharp-on-A" d="m194 184v-22l9-2.6v22l-9 2.7zm18-5.3-6.2 1.8v-22l6.2-1.8v-9l-6.2 1.8v-22h-2.5v23l-9 2.7v-22h-2.4v22l-6.2 1.8v9l6.2-1.8v22l-6.2 1.8v9l6.2-1.8v22h2.4v-23l9-2.6v21h2.5v-22l6.2-1.8v-9z"/>
 <path id="sharp-on-E" d="m220 124v-22l9-2.6v22l-9 2.7zm18-5.3-6.2 1.8v-22l6.2-1.8v-9l-6.2 1.8v-22h-2.5v23l-9 2.7v-22h-2.4v22l-6.2 1.8v9l6.2-1.8v22l-6.2 1.8v9l6.2-1.8v22h2.4v-23l9-2.6v21h2.5v-22l6.2-1.8v-9z"/>
 <path id="sharp-on-B" d="m245 169v-22l9-2.6v22l-9 2.7zm18-5.3-6.2 1.8v-22l6.2-1.8v-9l-6.2 1.8v-22h-2.5v23l-9 2.7v-22h-2.4v22l-6.2 1.8v9l6.2-1.8v22l-6.2 1.8v9l6.2-1.8v22h2.4v-23l9-2.6v21h2.5v-22l6.2-1.8v-9z"/>
 <path id="flat-on-B" d="m100 160c-3.7 4.7-6.9 7.4-11 11v-16c0.95-2.4 2.3-4.3 4.2-5.8 1.8-1.5 3.7-2.2 5.6-2.2 8.8 1.3 5.7 8.8 1.3 13zm-11-13v-44h-3.4v70c0 2.1 0.57 3.2 1.7 3.2 0.66 0 1.5-0.56 2.7-1.3 8.4-5.2 14-9.3 19-17 1.7-2.3 2.8-7.5 0.43-11-1.5-2.3-4.4-4.6-8-5.3-4.7-0.91-8.8 1.5-13 5.2z"/>
 <path id="flat-on-E" d="m125 113c-3.7 4.7-6.9 7.4-11 11v-16c0.95-2.4 2.3-4.3 4.2-5.8 1.8-1.5 3.7-2.2 5.6-2.2 8.8 1.3 5.7 8.8 1.3 13zm-11-13v-44h-3.4v70c0 2.1 0.57 3.2 1.7 3.2 0.66 0 1.5-0.56 2.7-1.3 8.4-5.2 14-9.3 19-17 1.7-2.3 2.8-7.5 0.43-11-1.5-2.3-4.4-4.6-8-5.3-4.7-0.91-8.8 1.5-13 5.2z"/>
 <path id="flat-on-A" d="m150 174c-3.7 4.7-6.9 7.4-11 11v-16c0.95-2.4 2.3-4.3 4.2-5.8 1.8-1.5 3.7-2.2 5.6-2.2 8.8 1.3 5.7 8.8 1.3 13zm-11-13v-44h-3.4v70c0 2.1 0.57 3.2 1.7 3.2 0.66 0 1.5-0.56 2.7-1.3 8.4-5.2 14-9.3 19-17 1.7-2.3 2.8-7.5 0.43-11-1.5-2.3-4.4-4.6-8-5.3-4.7-0.91-8.8 1.5-13 5.2z"/>
 <path id="flat-on-D" d="m175 130c-3.7 4.7-6.9 7.4-11 11v-16c0.95-2.4 2.3-4.3 4.2-5.8 1.8-1.5 3.7-2.2 5.6-2.2 8.8 1.3 5.7 8.8 1.3 13zm-11-13v-44h-3.4v70c0 2.1 0.57 3.2 1.7 3.2 0.66 0 1.5-0.56 2.7-1.3 8.4-5.2 14-9.3 19-17 1.7-2.3 2.8-7.5 0.43-11-1.5-2.3-4.4-4.6-8-5.3-4.7-0.91-8.8 1.5-13 5.2z"/>
 <path id="flat-on-G" d="m201 190c-3.7 4.7-6.9 7.4-11 11v-16c0.95-2.4 2.3-4.3 4.2-5.8 1.8-1.5 3.7-2.2 5.6-2.2 8.8 1.3 5.7 8.8 1.3 13zm-11-13v-44h-3.4v70c0 2.1 0.57 3.2 1.7 3.2 0.66 0 1.5-0.56 2.7-1.3 8.4-5.2 14-9.3 19-17 1.7-2.3 2.8-7.5 0.43-11-1.5-2.3-4.4-4.6-8-5.3-4.7-0.91-8.8 1.5-13 5.2z"/>
 <path id="flat-on-C" d="m226 145c-3.7 4.7-6.9 7.4-11 11v-16c0.95-2.4 2.3-4.3 4.2-5.8 1.8-1.5 3.7-2.2 5.6-2.2 8.8 1.3 5.7 8.8 1.3 13zm-11-13v-44h-3.4v70c0 2.1 0.57 3.2 1.7 3.2 0.66 0 1.5-0.56 2.7-1.3 8.4-5.2 14-9.3 19-17 1.7-2.3 2.8-7.5 0.43-11-1.5-2.3-4.4-4.6-8-5.3-4.7-0.91-8.8 1.5-13 5.2z"/>
 <path id="flat-on-F" d="m251 205c-3.7 4.7-6.9 7.4-11 11v-16c0.95-2.4 2.3-4.3 4.2-5.8 1.8-1.5 3.7-2.2 5.6-2.2 8.8 1.3 5.7 8.8 1.3 13zm-11-13v-44h-3.4v70c0 2.1 0.57 3.2 1.7 3.2 0.66 0 1.5-0.56 2.7-1.3 8.4-5.2 14-9.3 19-17 1.7-2.3 2.8-7.5 0.43-11-1.5-2.3-4.4-4.6-8-5.3-4.7-0.91-8.8 1.5-13 5.2z"/>
</svg>
